<svg width="32" height="32" viewBox="0 0 32 32" fill="none" xmlns="http://www.w3.org/2000/svg">
    <rect width="32" height="32" fill="white"/>
    <path d="M16.4467 8.62885L17.3608 7.51158C17.9613 6.73809 17.8268 6.70944 18.6065 7.73122C18.8395 8.0368 19.0278 8.33283 19.0278 8.39967C19.0278 8.45697 18.033 9.26866 18.033 9.26866L16.85 10.2045L16.1935 10.7297L15.5325 11.2931C15.5325 11.36 15.5505 11.4173 15.5684 11.4173C15.5684 11.4173 16.2764 11.0162 16.3391 10.9398L16.7424 10.7011L17.5132 10.2522L18.033 9.94905L19.1174 9.26866C19.1174 9.26866 19.3504 9.12542 19.4759 9.12542C19.6013 9.12542 19.5834 9.09677 20.3631 10.1854C20.6768 10.6247 21.0474 11.2024 21.033 11.1666C21.0868 11.3122 21.1338 11.2788 20.865 11.4889L20.2645 12.0093C20.2645 12.0093 20.0046 12.2767 19.9867 12.2767C19.9867 12.2767 18.723 13.5181 18.7768 13.5754C18.8306 13.6327 19.1263 13.5086 19.5655 13.2412C19.6372 13.1934 19.8792 13.0693 20.1032 12.9643C20.3273 12.8592 20.7843 12.63 21.1159 12.4677C21.7164 12.1621 21.9852 12.143 21.9852 12.4104C21.9852 12.5632 21.7791 12.716 20.8022 13.2698C20.39 13.499 19.8792 13.8046 19.6551 13.9287C19.431 14.0624 19.1084 14.2534 18.9381 14.3489C18.1584 14.7977 17.4056 15.2943 17.4056 15.2943L17.1636 15.428L16.8906 15.6025L16.4736 15.8577L15.9986 16.1633L15.7924 16.2874C15.7924 16.2874 15.416 16.4689 15.0576 16.698C14.708 16.9272 14.251 17.1946 14.0538 17.2901C13.8566 17.3951 13.534 17.5861 13.3368 17.7103C13.1397 17.844 12.817 18.0445 12.6199 18.1495C12.0553 18.4838 11.5713 18.7703 11.2576 18.9803L10.9619 19.1713V18.7894V18.4074H10.5855C10.3704 18.4074 9.95813 18.3978 9.67134 18.3978L9.14258 18.3883L9.38455 18.1495C9.51002 18.0254 9.56293 17.9221 9.56293 17.9221L9.83713 17.5768L10.0481 17.3214C10.1914 17.0827 10.3435 16.8604 10.3435 16.8604L10.4242 16.7553C10.4242 16.7553 10.5496 16.5262 10.693 16.3543C10.8454 16.1824 11.0364 15.8906 11.0364 15.8906L11.1355 15.7553L11.2307 15.6094L11.3652 15.3611C11.4686 15.1479 11.4458 14.869 11.4458 14.7691C11.3921 14.3298 11.401 14.3107 11.7326 14.0338C11.9298 13.881 12.1897 13.6996 12.3152 13.6232C12.6019 13.4704 13.0232 13.0979 13.0232 12.9929C13.0232 12.9165 11.876 13.0025 11.643 13.0979C11.5175 13.1457 11.4996 13.0311 11.4996 12.2003C11.4996 11.4841 11.4638 11.2167 11.3741 11.1594C11.3114 11.1212 11.2397 10.9207 11.2128 10.7297L11.177 10.3764L12.4585 10.3477L13.7401 10.3191V10.6342C13.7401 10.8252 13.6684 11.0066 13.5609 11.1021C13.4354 11.2167 13.3816 11.3886 13.3816 11.656C13.3816 12.2481 13.534 12.334 13.8656 11.9234L14.3316 11.3695C14.4392 11.2454 14.8245 10.7106 14.8245 10.7106L16.4467 8.62885Z" fill="#22266F"/>
    <path d="M5.08296 8.76251C4.76032 9.13494 4.68862 9.37367 4.68862 10.0708C4.68862 10.6533 4.66174 10.7583 4.50042 10.8538C4.37495 10.9207 4.33014 11.0162 4.35703 11.1498C4.4108 11.3408 4.26741 11.7992 4.15986 11.7992C4.13298 11.7992 4.00751 11.8851 3.891 11.9806L3.67591 12.1525L3.95373 12.6013C4.11505 12.8496 4.24052 13.0884 4.24052 13.1361C4.24052 13.2889 3.87307 13.4417 3.64902 13.3844C3.38912 13.308 3.36224 13.499 3.58629 13.8714C3.72968 14.1006 3.72968 14.1197 3.5594 14.2534C3.46978 14.3202 3.2995 14.3584 3.18299 14.3298C2.94998 14.2725 2.93206 14.3966 3.1113 14.8741C3.25469 15.2274 3.72072 15.6667 4.01647 15.724C4.28533 15.7813 4.30325 16.3542 4.04335 16.698C3.85515 16.9367 3.81034 16.9463 3.50563 16.8604C3.31743 16.8031 3.16507 16.7171 3.16507 16.6694C3.16507 16.6121 3.08441 16.5739 2.98583 16.5739C2.75281 16.5739 2.73489 17.0322 2.95894 17.1182C3.15611 17.2041 3.61317 17.7293 3.61317 17.8726C3.61317 17.9299 3.53252 18.054 3.44289 18.14C3.30846 18.2737 3.18299 18.2928 2.83347 18.2355C2.60046 18.1973 2.31367 18.1304 2.20613 18.0922C2.02689 18.0254 2 18.0445 2 18.2641C2 18.4264 2.10754 18.6174 2.3316 18.8275C2.66319 19.1331 2.66319 19.1522 2.47499 19.2095C2.19717 19.2954 2.21509 19.3623 2.55565 19.5437C2.91413 19.7252 3.03064 19.9161 2.94998 20.2313C2.90517 20.4414 2.84244 20.4891 2.62735 20.4891C2.47499 20.4891 2.35848 20.5177 2.35848 20.5464C2.35848 20.6514 3.09337 21.3485 3.19196 21.3485C3.34431 21.339 3.6311 21.0716 3.91789 20.6514C4.09713 20.3936 4.2226 20.2981 4.35703 20.3172C4.54523 20.3459 4.55419 20.4032 4.61693 21.8642C4.65278 22.695 4.69759 23.3921 4.71551 23.4112C4.73343 23.4398 4.82306 23.4303 4.90371 23.3921C5.02918 23.3444 5.04711 23.1438 5.04711 21.9692C5.04711 20.6514 5.12777 20.1071 5.30701 20.1071C5.35182 20.1071 5.5221 20.2217 5.67445 20.365C5.94332 20.6037 6.02397 20.6228 6.70509 20.6132C7.72677 20.6037 7.99563 20.5273 8.05837 20.2313C8.09421 20.1071 8.06733 19.897 8.00459 19.7729C7.85224 19.4578 7.95978 19.219 8.36308 18.9708C8.66779 18.7893 8.7126 18.7225 8.66779 18.5028C8.6409 18.3405 8.70364 18.0731 8.83807 17.7675C9.08901 17.2423 9.08004 17.1277 8.82014 17.376C8.66779 17.5193 8.56024 17.5384 8.07629 17.462C7.54753 17.3951 7.51168 17.3665 7.48479 17.1277C7.46687 16.9845 7.50272 16.784 7.55649 16.6694C7.65507 16.4688 7.54753 15.9341 7.35036 15.638C7.28763 15.5616 7.3414 15.4566 7.50272 15.3229C7.79847 15.0746 7.79847 14.9887 7.46687 14.6927C7.32348 14.5685 7.19801 14.3775 7.19801 14.2916C7.19801 14.1006 7.46687 13.8046 7.62819 13.8046C7.69092 13.8046 7.73573 13.6804 7.73573 13.5181C7.73573 13.3653 7.79847 13.203 7.87912 13.1552C8.00459 13.0788 8.00459 13.0406 7.85224 12.7828C7.72677 12.5536 7.65507 12.5154 7.51168 12.5727C7.4131 12.6109 7.19801 12.6204 7.04565 12.5918C6.76783 12.5441 6.7499 12.5632 6.7499 12.821C6.7499 13.1075 6.51689 13.4226 6.31076 13.4226C6.25699 13.4226 6.15841 13.3175 6.10463 13.1839C6.05086 13.0502 5.96124 12.9547 5.90747 12.9738C5.33389 13.203 5.21739 13.0979 5.44144 12.5154C5.6386 12.0188 5.62068 11.7706 5.38767 11.656C5.13673 11.5318 4.96645 11.2453 5.09192 11.1498C5.33389 10.9684 5.67445 10.4241 5.67445 10.214C5.67445 10.0421 5.58483 9.91798 5.36078 9.78429C5.01126 9.56466 4.95749 9.30683 5.1905 8.9535C5.38767 8.64792 5.30701 8.49513 5.08296 8.76251Z" fill="#22266F"/>
    <path d="M19.2589 15.0336C19.4112 14.9572 20.1371 14.5561 20.872 14.1455C22.0461 13.4961 22.2343 13.4197 22.3239 13.5439L22.4449 13.6732L22.7137 14.0313L22.9781 14.4224L23.2111 14.7757L23.3859 15.0698C23.3859 15.0698 23.5539 15.3921 23.471 15.4346L22.9781 15.7144L22.7137 15.8576L22.2768 16.1083L21.9027 16.3232C21.9027 16.3232 21.3291 16.6665 21.2305 16.7429C21.0602 16.8861 21.0782 16.8861 21.4725 16.867C21.7055 16.8575 21.8937 16.8861 21.9027 16.9434C21.9027 16.9912 21.8489 17.0389 21.7951 17.0389C21.7324 17.0389 21.6607 17.0676 21.6338 17.0962C21.6069 17.1249 21.3291 17.335 21.0065 17.5641C20.1103 18.2039 19.7249 18.7101 20.0475 18.8342C20.1013 18.8628 20.6121 18.8533 21.1678 18.8247L22.1715 18.7769V19.7891V20.8109H21.2305C20.3522 20.8109 20.1282 20.7441 20.406 20.5531C20.4687 20.5149 20.5942 20.3143 20.6928 20.1234C20.8631 19.7796 20.8631 19.7509 20.7107 19.5981C20.4687 19.3403 18.0759 19.2596 16.1602 19.4745L15.2192 19.6292L14.4798 19.7247L13.3439 19.9037L12.4298 20.1138L11.0317 20.5244C10.9689 20.4289 10.9689 19.5576 11.0317 19.4263C11.1213 19.3976 11.6904 19.1164 11.6904 19.1164C11.6904 19.1164 18.7839 15.3105 18.8556 15.2627C18.9273 15.215 19.1155 15.1195 19.2589 15.0336Z" fill="#707370"/>
    <path d="M17.7284 19.7729C17.5581 19.8207 17.0742 19.8971 16.653 19.9544C16.2317 20.0021 15.6671 20.088 15.3983 20.1453C15.1294 20.2026 14.6007 20.3172 14.2332 20.3936C13.8658 20.47 13.3728 20.5942 13.1488 20.6706C12.9158 20.747 12.6469 20.8138 12.5573 20.8138C12.4587 20.8138 12.0465 20.9379 11.6342 21.1003C11.2219 21.2531 10.8698 21.3981 10.6493 21.4363C10.5571 21.4777 10.5659 21.4663 10.4691 21.53C10.4173 21.5641 10.332 21.6219 10.254 21.6446C10.1179 21.6842 8.52436 22.4754 8.36304 22.6473C8.31823 22.7046 8.36304 22.695 8.47955 22.6377C8.58709 22.5804 8.67672 22.5518 8.67672 22.59C8.6566 22.6377 8.75093 22.5714 8.86744 22.495C9.00587 22.4246 9.38472 22.2748 9.75216 22.1603C10.1196 22.0457 10.5498 21.9024 10.6932 21.8451C10.8455 21.7878 11.1413 21.7114 11.3653 21.6732C11.5894 21.635 11.8941 21.5586 12.0375 21.5013C12.1899 21.4441 12.4318 21.3772 12.5752 21.3486C12.7276 21.3295 13.0233 21.2626 13.2474 21.2149C14.4214 20.9284 16.8322 20.8424 16.8322 21.0907C16.8322 21.1671 15.945 21.3772 15.5148 21.4059C15.3535 21.4154 15.219 21.4536 15.219 21.4918C15.219 21.53 15.0488 21.5873 14.8426 21.6159C13.6686 21.8069 11.4012 22.5136 11.0875 22.8001C10.6304 23.2202 10.9889 23.2011 12.8889 22.7141C14.1615 22.3799 14.762 22.2653 15.6671 22.1794C17.2803 22.0361 19.7359 22.1221 20.4619 22.3512C20.6142 22.399 21.0982 22.4754 21.5373 22.5231C21.9854 22.5804 22.4425 22.6473 22.5679 22.6759C22.6934 22.7046 23.0519 22.7714 23.3745 22.8192C23.6972 22.8765 24.1363 22.9528 24.3604 23.0101C24.5844 23.0579 24.8891 23.1247 25.0325 23.1534C25.4 23.2202 25.8391 23.3921 26.4037 23.7072C26.6726 23.8505 26.9414 23.9651 27.0042 23.9651C27.0759 23.9651 27.1834 24.0224 27.2461 24.0892C27.4075 24.2611 28.0079 24.4712 28.1244 24.3948C28.2678 24.2993 28.232 24.0606 28.0617 23.9937C27.8825 23.9269 27.049 23.0292 27.049 22.9147C27.049 22.8765 26.9414 22.8192 26.807 22.7905C26.6636 22.7619 26.332 22.6664 26.0632 22.5804C24.8802 22.1889 24.4679 22.0839 23.733 21.9502C23.4641 21.9024 23.0788 21.826 22.8816 21.7687C22.6844 21.721 22.2812 21.6637 21.9854 21.635C21.6897 21.6064 21.3312 21.5395 21.1967 21.4918C21.0533 21.4345 20.7845 21.3868 20.5873 21.3868C20.2736 21.3868 19.6553 21.2722 19.252 21.1385C19.1623 21.1003 19.2609 20.957 19.5925 20.6419C19.5925 20.6419 19.9801 20.3936 20.081 20.2408C20.1818 20.088 19.9577 19.9544 19.9577 19.9544C19.7785 19.7729 19.5208 19.7538 18.8397 19.7252C18.4006 19.7061 17.8987 19.7252 17.7284 19.7729Z" fill="#22266F"/>
    <path d="M5.4952 23.373L5.0471 23.6309C5.0471 23.6309 4.84097 23.7741 4.64381 23.8791C4.44664 23.9842 3.96269 24.2802 3.57732 24.5476L2.86035 25.0251L3.50562 25.0537C4.47262 24.9267 4.68628 24.7559 4.77824 24.6431C5.11096 24.2348 5.45765 23.9885 5.45765 23.9885L5.70528 23.7657L6.04096 23.496C6.04096 23.496 6.23356 23.3435 6.51463 23.1629C6.78707 22.9879 6.81753 22.6823 6.81915 22.6724L6.81922 22.6723C6.81922 22.672 6.8192 22.6721 6.81915 22.6724L5.4952 23.373Z" fill="#757575"/>
    <path d="M29.0746 24.0606C28.8595 24.3375 29.3345 24.8818 29.7916 24.8818C30.0515 24.8818 30.0604 24.8341 29.8632 24.3375C29.7109 23.946 29.2807 23.7932 29.0746 24.0606Z" fill="#22266F"/>
</svg>


